/* XPM */
static const char *leda_small_icon[] = {
/* width height num_colors chars_per_pixel */
"    64    64       57            1",
/* colors */
". c #000000",
"# c #b7b7b7",
"a c #2f4f4f",
"b c #fffff0",
"c c #a0522d",
"d c #595959",
"e c #808080",
"f c #640000",
"g c #baa0a7",
"h c #8f8f8f",
"i c #adadad",
"j c #c3c3c3",
"k c #d2d2d2",
"l c #ffffcc",
"m c #6f6f6f",
"n c #656565",
"o c #d3b5b5",
"p c #efe3e3",
"q c #000033",
"r c #003300",
"s c #003333",
"t c #400000",
"u c #400033",
"v c #403333",
"w c #403366",
"x c #803333",
"y c #803366",
"z c #806633",
"A c #806666",
"B c #806699",
"C c #809966",
"D c #bf3333",
"E c #bf6633",
"F c #bf6666",
"G c #bf6699",
"H c #bf9933",
"I c #bf9966",
"J c #bfcc66",
"K c #bfcc99",
"L c #ff6666",
"M c #ff9933",
"N c #ff9966",
"O c #ffcc66",
"P c #ffcc99",
"Q c #ffcccc",
"R c #ffff66",
"S c #ffff99",
"T c #b49a9a",
"U c #4c4c4c",
"V c #999999",
"W c #bf9898",
"X c #bf7272",
"Y c #bf4c4c",
"Z c #e5b7b7",
"0 c #e58989",
"1 c #e55b5b",
"2 c #bfb498",
/* pixels */
"cxxxxFxcccxxzcFcxxtuvvvvvvxvxuvvvvuvxuvv..t...................t.",
"cxExxcxzcxzcdcxdxvvuvvvvuuvuutu.utvttvvv.........t........vt....",
"xxxcxxxcdxxcxIxDUvvtuvvuvtt..vttvuuttttt...t..................t.",
"cdcxcxcxxYxxcxxxxxvvvvttttt.uuvtuvuvvvvvvt..t..............vtt.t",
"xcFxzccdxcxxcxcxxzvvvqtvt.tttuvvutvvvxvvvuv..t..............tt..",
"xccccccAcxAxzFxvvu.tt.tvvuvtvvxxvvxvcvxzvuuutttt..t....t...t..t.",
"cdzcUxccxcxxvvvttvtvvtvvvvvuuvUxvxxvcxEcxvtvvut.............t..t",
"xxcvvcvcxvxttvu.tvvuvvxvxUvtvvxcxcxxFdxcvxvtvvtt.............t..",
"vxxUxxxxvtvv.tttvvvvvvvccxxvuuvvzxzEcFEcxxxvvvvvt......t..v.t...",
"xxxxxvzvvvvuuttt.tvvvvvxxcxxucxxEcYIcHFxExvcxvvtvu.t........u..t",
"cvvxvxxvvvtuuvvtvu.vvvvccccIExxDxcEIEcFzcxDcvxvvu..t.......tt.t.",
"xUzvvxxUvvvvtt.vvvxccxccxEcDHEHzEHcxEccIxccvxxvxt.t........t....",
"xxvxvvvtvt..ttuutzxFEcEcAIxFHIIEFEDxcEzIIIEccxvvut.tv.t.t..tt.t.",
"vvvvvvttvvtttttvvvvxcxEFDIHFExHEccYcExFIEFEAxxvvvtu.tuttt.tt....",
"vvcvvvvvtvvttuttvUzxxExxDxcxczxAzcvxcxxEEEAcxxvvttt.utt....tt...",
"xxvvxv.v.t.ttvtvvxxxxxvvUvxxvvfxcxccvxcxccccxvxuvttvvuut...q....",
"zvvvtv...ttt.tvtvxxvxvvvuvvuuvvvxxxcxxxxccxcvvxuxvvvvvxxt..tu.t.",
"vvx.tv.v.q.tv.tvttvvvttvttutvtuvvxxxzxxxxxxvvxvvxuuvvxxxft.t.ut.",
"xvvtvv..tt.vuvvtvt..t.tv.tttutuvvxxcxcCcEcxEcxzxxvvvvvcxxv.v..r.",
"vvv..uvtt.t..vvuvv......t.ttuuvxxxccEEENFIIzCcEYDxxxUcxxxvuu....",
"xvtt.v.tt..tvvuvt..t..t.ttttvvDccYEcININPIIFFIcIcxcxFExzxvv..t..",
"xvv..vt.tvtqtu.tt.t....tutuvvcxIIIINNINNNIOOIONNFxccDzIEzxvt....",
"cvvv..t...tttt......tt.ttvxxxEEcMNINNOONOONPRNNIIHxzccIxcvtvu.t.",
"cv...t..t..ttt.....v..vuvvxxFcHFIINONNPONONSOOPNNAccxxIcxcvt..r.",
"Uttvt......r.vstt....tvvvxYEDIIIOPIONORPPPOOPSONPIYcccHFxcvvu...",
"xvtts.t......v.t..tvtvtxxEcENFNINONIOPSOSONOONIPNOIHHcAxxxtvttt.",
"vttttvvtt.vt.vututtvvvxxxcEcIXNNNNNPPNPONOPPOPSJIINcxcYEEvx.t...",
"Uvvvtttvuuv.uu.tutvtvvvxDIcFYHcFONPNORPPOPSPOPNNNNIEHcxFcxxtu...",
"xvtvt.ttvtvvvvtttvvuxxvEccIFcIYFNNNOIORRRPNONPOOOIIIcFcxcExvtt..",
"vvtv..ttvtuvtvvutvvvvvxxEccccFFcccNINSOPPSORSOONPNXIAczxIHxct...",
"xvt.v.vttvxvuvuuvxvvxcxccxccxHxxExcNNONNONIPNOPOJNIJEdcxxYzzvtvt",
"zuttt.tt.vvxxvxvvvxxxxzxxxxdxccxcxxFFIOIOINSNPPNOFIIcxxxxFxcvt..",
"xvttttttvvvxuvvvxxcccxcxxcxcIxExvcxxYFINNONOSNNONOIFIxvvxvYxv...",
"xvvtrtvvtvxvvxvvxxYcEcDxxxxDFYYxxfvxcYEONNNIPIOO2IOXYxt.uuxxvt..",
"dxvvtv.ttvvvxuvxxcIXFIYYxvcDxIYFxxvxDIFIPNONNONNNFFIcvuu.uuvv...",
"cvt..vtvtttuvuvvczFIFIIEzxvxcExxxvvxDIINOIINIINNNNIIcvt..t.vt.v.",
"Uxvtt.ttttvvvvuvxxIFFPIIXxvuufxvvtvxxFNIPLNIFNNINXIYxv...ttvtt..",
"vvvvtttv.ttvvuvxcYIINNIFIccvtvvvvvxxxIIXOIIHYEIXIIYFvtt..vttu...",
"cvxvvvt..ttvvvxvcEYINIONOIxExvvxvvvvcIIOIIDcxxcFFFEcvt..t..tttt.",
"xxvvvvvvvtuxvxxcDAINNPPNNNIYzxExxcxxFFNNYcxxExxYxcFxuu.tt.u.tt..",
"vxvvvvvuvvvvxxvxxFIFNNNOOPNIIIcAcxvDNONFcxxxDxDYcccvttt.........",
"cxvxuvu.vvvvxuxxxYINNPOOPNONFIcEExccINIxcxxFFIcxExvvtt..........",
"xxxvvvttvvvvxvxvxcIIIONNLNNNFIFIHcEYNNccxxzFIIFxvxv.tt..tt.t....",
"dxxvvvutvvuvvvvxxxEcININONNIIIcEExENNOIczvxYccxvcxvvt.t..t.t..t.",
"zxxzvvvtvvvxxvxxxxFIFNIFIFIFDcccEEH2NIIccvvxxxxuvvtttv..v.......",
"xUxxvxvuvvxxxxxvxcxEIYFFEIDYYxcYxFNNNIINxcxvvxvxvv..vu..........",
"xxcvdvvxvvxvxxvxxcYYIYEIFEcxxxDAcNIOINNOFYcxcxxx.t..tvt.........",
"vDUcxUxvvvvxxxvxxxFYFExFDxcxvvxEINSNFNNNOIIFcEcv..ttttt.........",
"vcxvzxxxxvvvxxvcxxFcAYczxAExvvvvcINNNINPOOIFIcxvt....t..........",
"xvcUxxxvvvvvxvxvxxYccExxvvxxxxuvcxIFFNNONFNIYzv..t......v.......",
"UvvxxxxvvvvxxvxvxxcYDEcDxvvvxcxxxxDccIIYNIINcxt.tttt............",
"xUxvxcxvxvvxxxxxxxxFYcIYExxvxxFxcFYINXININcExvttutvv.......t..tt",
"xxxxxxvvvvxxdxcxxcEFzDcEcxxfuvEIIOINFEFIcNExvttttvv.t........t.t",
"vvxvcxxvvvvvxxxzxxcccXcEEcExvvxxcFNNIIFIIcxxvttvuvv...........tt",
"vUxvvxvvvvvvvvvvxxxccxEcccxccxcvvxcIHYHIccv.t.tuuvv.........tvUA",
"vxvvxvvvvuxvvvvxvxcxzcFFDzxxcccEHcFFFIYccv.tt.ttttt.....tt..vvvc",
"xvvvvxvvuxvvxvtvvxvxxYFNIcExccxINYNINIFxUt.t.ttuv.v...t..ttvuvxx",
"xvvxvxvuvvvxuuvuvxxcDFIYINIIYIINNIIFDFxxutu.tt.t..t.....tt.vvxxx",
"vvvvvvvtvvvxvvvvuvvvxxFENINNIENIEIYIYxvtuvtu.t.t........t.tqvvtU",
"vvvvvuvvvvvvvvvvuvuvvccIYINNNIIIFFdcxuxxxxut.t............t.tvxc",
"vvvuvvuvvvvxvvvtvuuvvxcxcIFEINIHFHvvvxcAccxvvt.........tt..tuxvx",
"vvvtvvvvxvvvxvtvvtuvvuvxcAEFXFYIYxvvvxxxxcxut.t............tvxvx",
"vvvvvuvvvxxuvvuvttttutuvxcccYIEIIxvtvtvvvxxvt..............vxvxD",
"vvvuvtuvvxvvxvvvvtttttuvvxDFEINNIDxvutttvvvutut.........tt.xxxcx"
};
